<svg width="12" height="12" viewBox="0 0 12 12" fill="none" xmlns="http://www.w3.org/2000/svg">
<path d="M11.625 1V9.125C11.625 9.29076 11.5591 9.44973 11.4419 9.56694C11.3247 9.68415 11.1657 9.75 11 9.75C10.8342 9.75 10.6753 9.68415 10.558 9.56694C10.4408 9.44973 10.375 9.29076 10.375 9.125V2.50859L1.44217 11.4422C1.32489 11.5595 1.16583 11.6253 0.999981 11.6253C0.834129 11.6253 0.675069 11.5595 0.557794 11.4422C0.440518 11.3249 0.374634 11.1659 0.374634 11C0.374634 10.8341 0.440518 10.6751 0.557794 10.5578L9.49139 1.625H2.87498C2.70922 1.625 2.55025 1.55915 2.43304 1.44194C2.31583 1.32473 2.24998 1.16576 2.24998 1C2.24998 0.83424 2.31583 0.675269 2.43304 0.558058C2.55025 0.440848 2.70922 0.375 2.87498 0.375H11C11.1657 0.375 11.3247 0.440848 11.4419 0.558058C11.5591 0.675269 11.625 0.83424 11.625 1Z" fill="#3996DB"/>
</svg>
