<svg width="28" height="28" viewBox="0 0 28 28" fill="none" xmlns="http://www.w3.org/2000/svg">
<g clip-path="url(#clip0_4105_197)">
<path d="M22.7839 8.27751C23.0514 7.41476 23.1372 6.50595 23.0359 5.60838C22.9346 4.71082 22.6484 3.84398 22.1955 3.06251C22.1187 2.92947 22.0082 2.81899 21.8751 2.74219C21.7421 2.66539 21.5911 2.62498 21.4375 2.62501C20.4183 2.62288 19.4128 2.85915 18.5012 3.31493C17.5896 3.77072 16.7973 4.4334 16.1875 5.25001H13.5625C12.9527 4.4334 12.1604 3.77072 11.2488 3.31493C10.3372 2.85915 9.33167 2.62288 8.3125 2.62501C8.15887 2.62498 8.00794 2.66539 7.87489 2.74219C7.74183 2.81899 7.63135 2.92947 7.55453 3.06251C7.10155 3.84398 6.8154 4.71082 6.71413 5.60838C6.61285 6.50595 6.69864 7.41476 6.96609 8.27751C6.42548 9.22111 6.13589 10.2876 6.125 11.375V12.25C6.12684 13.7305 6.6643 15.1604 7.63812 16.2755C8.61194 17.3907 9.95636 18.1158 11.4231 18.317C10.8244 19.0832 10.4994 20.0277 10.5 21V21.875H7.875C7.17881 21.875 6.51113 21.5985 6.01884 21.1062C5.52656 20.6139 5.25 19.9462 5.25 19.25C5.25 18.6755 5.13684 18.1066 4.91697 17.5758C4.69711 17.045 4.37485 16.5627 3.96859 16.1564C3.56234 15.7502 3.08004 15.4279 2.54924 15.208C2.01844 14.9882 1.44953 14.875 0.875 14.875C0.642936 14.875 0.420376 14.9672 0.256282 15.1313C0.0921873 15.2954 0 15.5179 0 15.75C0 15.9821 0.0921873 16.2046 0.256282 16.3687C0.420376 16.5328 0.642936 16.625 0.875 16.625C1.57119 16.625 2.23887 16.9016 2.73116 17.3939C3.22344 17.8861 3.5 18.5538 3.5 19.25C3.5 20.4103 3.96094 21.5231 4.78141 22.3436C5.60188 23.1641 6.71468 23.625 7.875 23.625H10.5V25.375C10.5 25.6071 10.5922 25.8296 10.7563 25.9937C10.9204 26.1578 11.1429 26.25 11.375 26.25C11.6071 26.25 11.8296 26.1578 11.9937 25.9937C12.1578 25.8296 12.25 25.6071 12.25 25.375V21C12.25 20.3038 12.5266 19.6361 13.0188 19.1439C13.5111 18.6516 14.1788 18.375 14.875 18.375C15.5712 18.375 16.2389 18.6516 16.7312 19.1439C17.2234 19.6361 17.5 20.3038 17.5 21V25.375C17.5 25.6071 17.5922 25.8296 17.7563 25.9937C17.9204 26.1578 18.1429 26.25 18.375 26.25C18.6071 26.25 18.8296 26.1578 18.9937 25.9937C19.1578 25.8296 19.25 25.6071 19.25 25.375V21C19.2506 20.0277 18.9256 19.0832 18.3269 18.317C19.7936 18.1158 21.1381 17.3907 22.1119 16.2755C23.0857 15.1604 23.6232 13.7305 23.625 12.25V11.375C23.6141 10.2876 23.3245 9.22111 22.7839 8.27751ZM21.875 12.25C21.875 13.4103 21.4141 14.5231 20.5936 15.3436C19.7731 16.1641 18.6603 16.625 17.5 16.625H12.25C11.0897 16.625 9.97688 16.1641 9.15641 15.3436C8.33594 14.5231 7.875 13.4103 7.875 12.25V11.375C7.88573 10.5 8.14769 9.64658 8.62969 8.91626C8.71954 8.79783 8.77774 8.65846 8.79879 8.5113C8.81984 8.36414 8.80305 8.21404 8.75 8.07517C8.52209 7.48739 8.4124 6.8604 8.42723 6.23015C8.44206 5.5999 8.5811 4.97877 8.83641 4.40236C9.5525 4.47939 10.2421 4.71661 10.854 5.09642C11.466 5.47623 11.9846 5.9889 12.3714 6.59642C12.4502 6.71969 12.5587 6.82123 12.6869 6.89173C12.8151 6.96224 12.959 6.99947 13.1053 7.00001H16.6436C16.7905 7.00002 16.935 6.96305 17.0638 6.89252C17.1926 6.82199 17.3017 6.72016 17.3808 6.59642C17.7676 5.98885 18.2862 5.47614 18.8981 5.09632C19.5101 4.7165 20.1997 4.47932 20.9158 4.40236C21.1707 4.97892 21.3094 5.60012 21.3239 6.23037C21.3383 6.86062 21.2283 7.48753 21 8.07517C20.9471 8.21272 20.9294 8.36129 20.9485 8.50741C20.9676 8.65353 21.0229 8.79256 21.1094 8.91189C21.5962 9.64221 21.862 10.4974 21.875 11.375V12.25Z" fill="#878EA1"/>
</g>
<defs>
<clipPath id="clip0_4105_197">
<rect width="28" height="28" fill="white"/>
</clipPath>
</defs>
</svg>
