<svg width="24" height="24" viewBox="0 0 24 24" fill="none" xmlns="http://www.w3.org/2000/svg">
<path d="M12 6.75C10.9616 6.75 9.94661 7.05791 9.08326 7.63478C8.2199 8.21166 7.54699 9.0316 7.14963 9.99091C6.75227 10.9502 6.64831 12.0058 6.85088 13.0242C7.05345 14.0426 7.55346 14.9781 8.28769 15.7123C9.02192 16.4465 9.95738 16.9466 10.9758 17.1491C11.9942 17.3517 13.0498 17.2477 14.0091 16.8504C14.9684 16.453 15.7883 15.7801 16.3652 14.9167C16.9421 14.0534 17.25 13.0384 17.25 12C17.2486 10.6081 16.695 9.27354 15.7107 8.28929C14.7265 7.30504 13.3919 6.75145 12 6.75ZM12 15.5C11.3078 15.5 10.6311 15.2947 10.0555 14.9101C9.47993 14.5256 9.03133 13.9789 8.76642 13.3394C8.50151 12.6999 8.4322 11.9961 8.56725 11.3172C8.7023 10.6383 9.03564 10.0146 9.52513 9.52513C10.0146 9.03564 10.6383 8.7023 11.3172 8.56725C11.9961 8.4322 12.6999 8.50151 13.3394 8.76642C13.9789 9.03133 14.5256 9.47993 14.9101 10.0555C15.2947 10.6311 15.5 11.3078 15.5 12C15.5 12.9283 15.1313 13.8185 14.4749 14.4749C13.8185 15.1313 12.9283 15.5 12 15.5ZM17.25 0.625H6.75C5.12608 0.626737 3.56917 1.27261 2.42089 2.42089C1.27261 3.56917 0.626737 5.12608 0.625 6.75V17.25C0.626737 18.8739 1.27261 20.4308 2.42089 21.5791C3.56917 22.7274 5.12608 23.3733 6.75 23.375H17.25C18.8739 23.3733 20.4308 22.7274 21.5791 21.5791C22.7274 20.4308 23.3733 18.8739 23.375 17.25V6.75C23.3733 5.12608 22.7274 3.56917 21.5791 2.42089C20.4308 1.27261 18.8739 0.626737 17.25 0.625ZM21.625 17.25C21.625 18.4103 21.1641 19.5231 20.3436 20.3436C19.5231 21.1641 18.4103 21.625 17.25 21.625H6.75C5.58968 21.625 4.47688 21.1641 3.65641 20.3436C2.83594 19.5231 2.375 18.4103 2.375 17.25V6.75C2.375 5.58968 2.83594 4.47688 3.65641 3.65641C4.47688 2.83594 5.58968 2.375 6.75 2.375H17.25C18.4103 2.375 19.5231 2.83594 20.3436 3.65641C21.1641 4.47688 21.625 5.58968 21.625 6.75V17.25ZM19 6.3125C19 6.57209 18.923 6.82585 18.7788 7.04169C18.6346 7.25753 18.4296 7.42575 18.1898 7.52509C17.9499 7.62443 17.686 7.65042 17.4314 7.59978C17.1768 7.54914 16.943 7.42413 16.7594 7.24058C16.5759 7.05702 16.4509 6.82316 16.4002 6.56856C16.3496 6.31396 16.3756 6.05006 16.4749 5.81023C16.5742 5.5704 16.7425 5.36542 16.9583 5.2212C17.1742 5.07698 17.4279 5 17.6875 5C18.0356 5 18.3694 5.13828 18.6156 5.38442C18.8617 5.63056 19 5.9644 19 6.3125Z" fill="#878EA1"/>
</svg>
