<svg width="28" height="28" viewBox="0 0 28 28" fill="none" xmlns="http://www.w3.org/2000/svg">
<path d="M23.625 2.625H4.375C3.91087 2.625 3.46575 2.80937 3.13756 3.13756C2.80937 3.46575 2.625 3.91087 2.625 4.375V23.625C2.625 24.0891 2.80937 24.5342 3.13756 24.8624C3.46575 25.1906 3.91087 25.375 4.375 25.375H23.625C24.0891 25.375 24.5342 25.1906 24.8624 24.8624C25.1906 24.5342 25.375 24.0891 25.375 23.625V4.375C25.375 3.91087 25.1906 3.46575 24.8624 3.13756C24.5342 2.80937 24.0891 2.625 23.625 2.625ZM23.625 23.625H4.375V4.375H23.625V23.625ZM10.5 12.25V19.25C10.5 19.4821 10.4078 19.7046 10.2437 19.8687C10.0796 20.0328 9.85706 20.125 9.625 20.125C9.39294 20.125 9.17038 20.0328 9.00628 19.8687C8.84219 19.7046 8.75 19.4821 8.75 19.25V12.25C8.75 12.0179 8.84219 11.7954 9.00628 11.6313C9.17038 11.4672 9.39294 11.375 9.625 11.375C9.85706 11.375 10.0796 11.4672 10.2437 11.6313C10.4078 11.7954 10.5 12.0179 10.5 12.25ZM20.125 15.3125V19.25C20.125 19.4821 20.0328 19.7046 19.8687 19.8687C19.7046 20.0328 19.4821 20.125 19.25 20.125C19.0179 20.125 18.7954 20.0328 18.6313 19.8687C18.4672 19.7046 18.375 19.4821 18.375 19.25V15.3125C18.375 14.7323 18.1445 14.1759 17.7343 13.7657C17.3241 13.3555 16.7677 13.125 16.1875 13.125C15.6073 13.125 15.0509 13.3555 14.6407 13.7657C14.2305 14.1759 14 14.7323 14 15.3125V19.25C14 19.4821 13.9078 19.7046 13.7437 19.8687C13.5796 20.0328 13.3571 20.125 13.125 20.125C12.8929 20.125 12.6704 20.0328 12.5063 19.8687C12.3422 19.7046 12.25 19.4821 12.25 19.25V12.25C12.2511 12.0357 12.3308 11.8292 12.474 11.6697C12.6172 11.5103 12.814 11.4089 13.027 11.3849C13.24 11.3609 13.4543 11.4159 13.6295 11.5395C13.8046 11.6631 13.9283 11.8466 13.977 12.0553C14.569 11.6538 15.2591 11.421 15.9733 11.3821C16.6875 11.3432 17.3988 11.4996 18.0309 11.8344C18.6629 12.1693 19.1918 12.67 19.5607 13.2828C19.9297 13.8955 20.1248 14.5972 20.125 15.3125ZM10.9375 9.1875C10.9375 9.44709 10.8605 9.70085 10.7163 9.91669C10.5721 10.1325 10.3671 10.3008 10.1273 10.4001C9.88744 10.4994 9.62354 10.5254 9.36894 10.4748C9.11434 10.4241 8.88048 10.2991 8.69692 10.1156C8.51337 9.93202 8.38836 9.69816 8.33772 9.44356C8.28708 9.18896 8.31307 8.92506 8.41241 8.68523C8.51175 8.4454 8.67998 8.24042 8.89581 8.0962C9.11165 7.95198 9.36541 7.875 9.625 7.875C9.9731 7.875 10.3069 8.01328 10.5531 8.25942C10.7992 8.50556 10.9375 8.8394 10.9375 9.1875Z" fill="#878EA1"/>
</svg>
