<svg width="28" height="28" viewBox="0 0 28 28" fill="none" xmlns="http://www.w3.org/2000/svg">
<path d="M24.5 5.25H3.5C3.26794 5.25 3.04538 5.34219 2.88128 5.50628C2.71719 5.67038 2.625 5.89294 2.625 6.125V21C2.625 21.4641 2.80937 21.9092 3.13756 22.2374C3.46575 22.5656 3.91087 22.75 4.375 22.75H23.625C24.0891 22.75 24.5342 22.5656 24.8624 22.2374C25.1906 21.9092 25.375 21.4641 25.375 21V6.125C25.375 5.89294 25.2828 5.67038 25.1187 5.50628C24.9546 5.34219 24.7321 5.25 24.5 5.25ZM22.2502 7L14 14.5633L5.74984 7H22.2502ZM23.625 21H4.375V8.11453L13.4083 16.3953C13.5697 16.5435 13.7809 16.6257 14 16.6257C14.2191 16.6257 14.4303 16.5435 14.5917 16.3953L23.625 8.11453V21Z" fill="#878EA1"/>
</svg>
